<svg xmlns="http://www.w3.org/2000/svg" viewBox="0 0 40 40">
  <defs>
    <linearGradient id="g" x1="0" y1="0" x2="1" y2="1">
      <stop offset="0%" stop-color="#22d3ee"/>
      <stop offset="55%" stop-color="#6366f1"/>
      <stop offset="100%" stop-color="#8b5cf6"/>
    </linearGradient>
  </defs>
  <rect width="40" height="40" rx="9" fill="#060b1a"/>
  <path d="M20 12.4c-2.6-1.6-5.7-2-8.6-1.2a.9.9 0 0 0-.7.9v13.4c0 .6.5 1 1.1.9 2.7-.6 5.6-.2 8.2 1.2m0-15.2c2.6-1.6 5.7-2 8.6-1.2.4.1.7.5.7.9v13.4c0 .6-.5 1-1.1.9-2.7-.6-5.6-.2-8.2 1.2m0-15.2v15.2"
    fill="none" stroke="url(#g)" stroke-width="2.2" stroke-linecap="round" stroke-linejoin="round"/>
  <circle cx="14.8" cy="17.4" r="1.6" fill="url(#g)"/>
  <circle cx="25.2" cy="17.4" r="1.6" fill="url(#g)"/>
  <circle cx="20" cy="8.6" r="1.8" fill="url(#g)"/>
  <path d="M20 8.6 14.8 17.4M20 8.6l5.2 8.8" stroke="url(#g)" stroke-width="1.4" stroke-linecap="round" opacity=".7"/>
</svg>
